#Comment line ignore any data following # character 
#Hierarchical Translation and Rotation (.htr) file 
[Header]	
#Header keywords are followed by a single value 
FileType HTR		#Single word string
DataType HTRS		#Translation followed by rotation and scale data
FileVersion 1		#integer
NumSegments 84		#integer
NumFrames 2		#integer
DataFrameRate 30		#integer, data frame rate in this file
EulerRotationOrder ZYX
CalibrationUnits mm
RotationUnits Degrees
GlobalAxisofGravity Y
BoneLengthAxis Y
ScaleFactor 1.00
[SegmentNames&Hierarchy]
#CHILD	PARENT
MASTER GLOBAL
root MASTER
chest root
L_mid_tent01 root
R_mid_tent01 root
spine01 root
Bip01_Neck chest
L_humerus chest
R_humerus chest
weapon_bone chest
Bip01_Head Bip01_Neck
eye_left_bone Bip01_Head
eye_right_bone Bip01_Head
L_forearm L_humerus
L_front_hand L_forearm
L_weapon_bone L_forearm
L_front_hand01_01 L_front_hand
L_front_hand02_01 L_front_hand
L_front_hand03_01 L_front_hand
L_front_hand01_02 L_front_hand01_01
L_front_hand02_02 L_front_hand02_01
L_front_hand03_02 L_front_hand03_01
R_forearm R_humerus
R_front_hand R_forearm
R_weapon_bone R_forearm
R_front_hand01_01 R_front_hand
R_front_hand02_01 R_front_hand
R_front_hand03_01 R_front_hand
R_front_hand01_02 R_front_hand01_01
R_front_hand02_02 R_front_hand02_01
R_front_hand03_02 R_front_hand03_01
null_rope01_connect L_mid_tent01
Rope1_Seg01 null_rope01_connect
Rope1_Seg02 Rope1_Seg01
Rope1_Seg03 Rope1_Seg02
Rope1_Seg04 Rope1_Seg03
Rope1_Seg05 Rope1_Seg04
Rope1_Seg06 Rope1_Seg05
Rope1_Seg07 Rope1_Seg06
Rope1_Seg09 Rope1_Seg07
L_mid_hand01 Rope1_Seg09
L_mid_hand02 Rope1_Seg09
L_mid_hand03 Rope1_Seg09
null_rope02_connect R_mid_tent01
Rope2_Seg01 null_rope02_connect
Rope2_Seg02 Rope2_Seg01
Rope2_Seg03 Rope2_Seg02
Rope2_Seg04 Rope2_Seg03
Rope2_Seg05 Rope2_Seg04
Rope2_Seg06 Rope2_Seg05
Rope2_Seg07 Rope2_Seg06
Rope2_Seg09 Rope2_Seg07
R_mid_hand01 Rope2_Seg09
R_mid_hand02 Rope2_Seg09
R_mid_hand03 Rope2_Seg09
spine02 spine01
spine03 spine02
pelvis spine03
null_rope03_connect pelvis
null_rope04_connect pelvis
Rope3_Seg01 null_rope03_connect
Rope3_Seg02 Rope3_Seg01
Rope3_Seg03 Rope3_Seg02
Rope3_Seg04 Rope3_Seg03
Rope3_Seg05 Rope3_Seg04
Rope3_Seg06 Rope3_Seg05
Rope3_Seg07 Rope3_Seg06
Rope3_Seg08 Rope3_Seg07
Rope3_Seg09 Rope3_Seg08
R_rear_hand01 Rope3_Seg09
R_rear_hand02 Rope3_Seg09
R_rear_hand03 Rope3_Seg09
Rope4_Seg01 null_rope04_connect
Rope4_Seg02 Rope4_Seg01
Rope4_Seg03 Rope4_Seg02
Rope4_Seg04 Rope4_Seg03
Rope4_Seg05 Rope4_Seg04
Rope4_Seg06 Rope4_Seg05
Rope4_Seg07 Rope4_Seg06
Rope4_Seg08 Rope4_Seg07
Rope4_Seg09 Rope4_Seg08
L_rear_hand01 Rope4_Seg09
L_rear_hand02 Rope4_Seg09
L_rear_hand03 Rope4_Seg09
[BasePosition]
#SegmentName Tx, Ty, Tz, Rx, Ry, Rz, BoneLength
MASTER 0.000000 0.000000 0.000000 -90.000000 0.000000 0.000000 10.000000 
root 0.000000 0.000000 0.000000 0.000000 0.000000 0.000000 10.000000 
chest 0.000000 0.000000 0.000000 0.000000 0.000000 0.000000 10.000000 
L_mid_tent01 0.000000 0.000000 0.000000 0.000000 0.000000 0.000000 10.000000 
R_mid_tent01 0.000000 0.000000 0.000000 0.000000 0.000000 0.000000 10.000000 
spine01 0.000000 0.000000 0.000000 0.000000 0.000000 0.000000 10.000000 
Bip01_Neck 0.000000 0.000000 0.000000 0.000000 0.000000 0.000000 10.000000 
L_humerus 0.000000 0.000000 0.000000 0.000000 0.000000 0.000000 10.000000 
R_humerus 0.000000 0.000000 0.000000 0.000000 0.000000 0.000000 10.000000 
weapon_bone 0.000000 0.000000 0.000000 0.000000 0.000000 0.000000 10.000000 
Bip01_Head 0.000000 0.000000 0.000000 0.000000 0.000000 0.000000 10.000000 
eye_left_bone 0.000000 0.000000 0.000000 0.000000 0.000000 0.000000 10.000000 
eye_right_bone 0.000000 0.000000 0.000000 0.000000 0.000000 0.000000 10.000000 
L_forearm 0.000000 0.000000 0.000000 0.000000 0.000000 0.000000 10.000000 
L_front_hand 0.000000 0.000000 0.000000 0.000000 0.000000 0.000000 10.000000 
L_weapon_bone 0.000000 0.000000 0.000000 0.000000 0.000000 0.000000 10.000000 
L_front_hand01_01 0.000000 0.000000 0.000000 0.000000 0.000000 0.000000 10.000000 
L_front_hand02_01 0.000000 0.000000 0.000000 0.000000 0.000000 0.000000 10.000000 
L_front_hand03_01 0.000000 0.000000 0.000000 0.000000 0.000000 0.000000 10.000000 
L_front_hand01_02 0.000000 0.000000 0.000000 0.000000 0.000000 0.000000 10.000000 
L_front_hand02_02 0.000000 0.000000 0.000000 0.000000 0.000000 0.000000 10.000000 
L_front_hand03_02 0.000000 0.000000 0.000000 0.000000 0.000000 0.000000 10.000000 
R_forearm 0.000000 0.000000 0.000000 0.000000 0.000000 0.000000 10.000000 
R_front_hand 0.000000 0.000000 0.000000 0.000000 0.000000 0.000000 10.000000 
R_weapon_bone 0.000000 0.000000 0.000000 0.000000 0.000000 0.000000 10.000000 
R_front_hand01_01 0.000000 0.000000 0.000000 0.000000 0.000000 0.000000 10.000000 
R_front_hand02_01 0.000000 0.000000 0.000000 0.000000 0.000000 0.000000 10.000000 
R_front_hand03_01 0.000000 0.000000 0.000000 0.000000 0.000000 0.000000 10.000000 
R_front_hand01_02 0.000000 0.000000 0.000000 0.000000 0.000000 0.000000 10.000000 
R_front_hand02_02 0.000000 0.000000 0.000000 0.000000 0.000000 0.000000 10.000000 
R_front_hand03_02 0.000000 0.000000 0.000000 0.000000 0.000000 0.000000 10.000000 
null_rope01_connect 0.000000 0.000000 0.000000 0.000000 0.000000 0.000000 10.000000 
Rope1_Seg01 0.000000 0.000000 0.000000 0.000000 0.000000 0.000000 10.000000 
Rope1_Seg02 0.000000 0.000000 0.000000 0.000000 0.000000 0.000000 10.000000 
Rope1_Seg03 0.000000 0.000000 0.000000 0.000000 0.000000 0.000000 10.000000 
Rope1_Seg04 0.000000 0.000000 0.000000 0.000000 0.000000 0.000000 10.000000 
Rope1_Seg05 0.000000 0.000000 0.000000 0.000000 0.000000 0.000000 10.000000 
Rope1_Seg06 0.000000 0.000000 0.000000 0.000000 0.000000 0.000000 10.000000 
Rope1_Seg07 0.000000 0.000000 0.000000 0.000000 0.000000 0.000000 10.000000 
Rope1_Seg09 0.000000 0.000000 0.000000 0.000000 0.000000 0.000000 10.000000 
L_mid_hand01 0.000000 0.000000 0.000000 0.000000 0.000000 0.000000 10.000000 
L_mid_hand02 0.000000 0.000000 0.000000 0.000000 0.000000 0.000000 10.000000 
L_mid_hand03 0.000000 0.000000 0.000000 0.000000 0.000000 0.000000 10.000000 
null_rope02_connect 0.000000 0.000000 0.000000 0.000000 0.000000 0.000000 10.000000 
Rope2_Seg01 0.000000 0.000000 0.000000 0.000000 0.000000 0.000000 10.000000 
Rope2_Seg02 0.000000 0.000000 0.000000 0.000000 0.000000 0.000000 10.000000 
Rope2_Seg03 0.000000 0.000000 0.000000 0.000000 0.000000 0.000000 10.000000 
Rope2_Seg04 0.000000 0.000000 0.000000 0.000000 0.000000 0.000000 10.000000 
Rope2_Seg05 0.000000 0.000000 0.000000 0.000000 0.000000 0.000000 10.000000 
Rope2_Seg06 0.000000 0.000000 0.000000 0.000000 0.000000 0.000000 10.000000 
Rope2_Seg07 0.000000 0.000000 0.000000 0.000000 0.000000 0.000000 10.000000 
Rope2_Seg09 0.000000 0.000000 0.000000 0.000000 0.000000 0.000000 10.000000 
R_mid_hand01 0.000000 0.000000 0.000000 0.000000 0.000000 0.000000 10.000000 
R_mid_hand02 0.000000 0.000000 0.000000 0.000000 0.000000 0.000000 10.000000 
R_mid_hand03 0.000000 0.000000 0.000000 0.000000 0.000000 0.000000 10.000000 
spine02 0.000000 0.000000 0.000000 0.000000 0.000000 0.000000 10.000000 
spine03 0.000000 0.000000 0.000000 0.000000 0.000000 0.000000 10.000000 
pelvis 0.000000 0.000000 0.000000 0.000000 0.000000 0.000000 10.000000 
null_rope03_connect 0.000000 0.000000 0.000000 0.000000 0.000000 0.000000 10.000000 
null_rope04_connect 0.000000 0.000000 0.000000 0.000000 0.000000 0.000000 10.000000 
Rope3_Seg01 0.000000 0.000000 0.000000 0.000000 0.000000 0.000000 10.000000 
Rope3_Seg02 0.000000 0.000000 0.000000 0.000000 0.000000 0.000000 10.000000 
Rope3_Seg03 0.000000 0.000000 0.000000 0.000000 0.000000 0.000000 10.000000 
Rope3_Seg04 0.000000 0.000000 0.000000 0.000000 0.000000 0.000000 10.000000 
Rope3_Seg05 0.000000 0.000000 0.000000 0.000000 0.000000 0.000000 10.000000 
Rope3_Seg06 0.000000 0.000000 0.000000 0.000000 0.000000 0.000000 10.000000 
Rope3_Seg07 0.000000 0.000000 0.000000 0.000000 0.000000 0.000000 10.000000 
Rope3_Seg08 0.000000 0.000000 0.000000 0.000000 0.000000 0.000000 10.000000 
Rope3_Seg09 0.000000 0.000000 0.000000 0.000000 0.000000 0.000000 10.000000 
R_rear_hand01 0.000000 0.000000 0.000000 0.000000 0.000000 0.000000 10.000000 
R_rear_hand02 0.000000 0.000000 0.000000 0.000000 0.000000 0.000000 10.000000 
R_rear_hand03 0.000000 0.000000 0.000000 0.000000 0.000000 0.000000 10.000000 
Rope4_Seg01 0.000000 0.000000 0.000000 0.000000 0.000000 0.000000 10.000000 
Rope4_Seg02 0.000000 0.000000 0.000000 0.000000 0.000000 0.000000 10.000000 
Rope4_Seg03 0.000000 0.000000 0.000000 0.000000 0.000000 0.000000 10.000000 
Rope4_Seg04 0.000000 0.000000 0.000000 0.000000 0.000000 0.000000 10.000000 
Rope4_Seg05 0.000000 0.000000 0.000000 0.000000 0.000000 0.000000 10.000000 
Rope4_Seg06 0.000000 0.000000 0.000000 0.000000 0.000000 0.000000 10.000000 
Rope4_Seg07 0.000000 0.000000 0.000000 0.000000 0.000000 0.000000 10.000000 
Rope4_Seg08 0.000000 0.000000 0.000000 0.000000 0.000000 0.000000 10.000000 
Rope4_Seg09 0.000000 0.000000 0.000000 0.000000 0.000000 0.000000 10.000000 
L_rear_hand01 0.000000 0.000000 0.000000 0.000000 0.000000 0.000000 10.000000 
L_rear_hand02 0.000000 0.000000 0.000000 0.000000 0.000000 0.000000 10.000000 
L_rear_hand03 0.000000 0.000000 0.000000 0.000000 0.000000 0.000000 10.000000 
#Beginning of Data. Separated by tabs
#Fr	Tx	Ty	Tz	Rx	Ry	Rz	SF
[MASTER]
54 -377.995605 14475.907227 84.055099 0.001660 0.001660 0.001660 14481.085938
55 -269.577942 14676.712891 45.840958 0.001660 0.001660 0.001660 14679.260742
[root]
54 -16.502304 -62.822266 1500.000000 -90.643417 -17.727404 -112.356430 1501.405640
55 -16.502302 -62.822266 1500.000000 -83.647690 -18.927624 -110.786842 1501.405640
[chest]
54 -84.512650 -34.090519 0.000000 21.210871 0.987191 176.091415 91.129311
55 -84.512650 -34.090519 0.000000 25.345791 0.941257 175.965942 91.129311
[L_mid_tent01]
54 27.298704 22.179258 -249.918701 -9.379134 -3.401051 -19.329853 252.381653
55 27.298697 22.179258 -249.918701 -7.568895 -2.341653 -11.513322 252.381653
[R_mid_tent01]
54 23.228794 24.509907 226.238495 -177.963745 -7.721972 25.404560 228.744751
55 23.228794 24.509907 226.238495 -175.596786 -21.438576 35.677227 228.744751
[spine01]
54 -0.361383 -0.195265 0.000000 0.001791 0.001517 9.461367 0.410763
55 -0.361383 -0.195265 0.000000 0.001801 0.001506 10.203286 0.410763
[Bip01_Neck]
54 165.484543 71.581718 0.000119 176.643677 -1.657967 43.431911 180.302734
55 165.484543 71.581718 0.000119 176.643677 -1.657967 43.431911 180.302734
[L_humerus]
54 -13.983130 -135.272980 -120.471481 104.381699 59.823708 -168.503174 181.680161
55 -13.983130 -135.272980 -120.471481 113.746956 63.603958 -157.962357 181.680161
[R_humerus]
54 -13.983309 -135.273102 125.287651 -169.913834 -69.332191 -95.172028 184.909012
55 -13.983309 -135.273102 125.287651 -170.121338 -68.014648 -94.950600 184.909012
[weapon_bone]
54 235.964890 -300.705902 0.000000 0.000000 -89.951546 -128.212341 382.234833
55 235.964890 -300.705902 0.000000 0.000000 -89.951546 -128.212341 382.234833
[Bip01_Head]
54 213.442215 185.720795 11.712305 18.849443 6.106309 -43.831455 283.173065
55 213.443588 185.716248 11.771240 19.394991 5.990676 -43.834976 283.173523
[eye_left_bone]
54 -24.626970 125.451866 -64.772606 0.000000 -90.000000 -99.840431 143.318359
55 -24.626970 125.451866 -64.772606 0.000000 -90.000000 -99.840431 143.318359
[eye_right_bone]
54 -24.626970 125.451866 64.327362 0.000000 -89.965736 80.156380 143.117676
55 -24.626970 125.451866 64.327362 0.000000 -89.965736 80.156380 143.117676
[L_forearm]
54 322.776093 0.000000 -0.000119 0.000407 -0.002312 -109.995186 322.776093
55 322.776093 0.000000 -0.000119 0.000406 -0.002312 -109.938606 322.776093
[L_front_hand]
54 241.149185 -0.042021 -3.300071 -178.667953 -1.835447 -27.422350 241.171753
55 241.149185 -0.042021 -3.300071 -178.667953 -1.835447 -27.422350 241.171753
[L_weapon_bone]
54 156.183838 0.000000 0.000000 0.000014 0.000007 0.000001 156.183838
55 156.183838 0.000000 0.000000 0.000014 0.000007 0.000001 156.183838
[L_front_hand01_01]
54 86.095154 20.947098 -0.655860 -0.366594 -0.477154 75.385574 88.609184
55 86.095154 20.947098 -0.655860 -0.366594 -0.477154 75.385574 88.609184
[L_front_hand02_01]
54 86.935165 -11.437475 24.513514 154.399796 -59.883835 -61.369587 91.046425
55 86.935165 -11.437475 24.513514 154.399796 -59.883835 -61.369587 91.046425
[L_front_hand03_01]
54 86.637497 -14.123976 -20.424902 -153.913849 58.118130 -62.702866 90.126129
55 86.637497 -14.123976 -20.424902 -153.913849 58.118122 -62.702866 90.126129
[L_front_hand01_02]
54 71.020905 -0.000179 0.000030 0.000334 -0.002323 -106.379684 71.020905
55 71.020905 -0.000179 0.000030 0.000334 -0.002323 -106.379684 71.020905
[L_front_hand02_02]
54 71.020927 -0.000119 0.000060 0.000334 -0.002323 -106.379684 71.020927
55 71.020927 -0.000119 0.000060 0.000334 -0.002323 -106.379684 71.020927
[L_front_hand03_02]
54 71.020905 -0.000060 0.000060 0.000334 -0.002323 -106.379684 71.020905
55 71.020905 -0.000060 0.000060 0.000334 -0.002323 -106.379684 71.020905
[R_forearm]
54 322.776428 -0.000060 0.000030 0.201769 0.066186 -108.646484 322.776428
55 322.776428 -0.000060 0.000030 0.201803 0.066084 -108.588234 322.776428
[R_front_hand]
54 238.847015 -0.006795 2.210259 -2.635298 -10.645461 -26.312506 238.857239
55 238.847015 -0.006795 2.210259 -2.635298 -10.645461 -26.312506 238.857239
[R_weapon_bone]
54 155.664093 0.002503 -0.000030 0.003487 0.001180 -90.988930 155.664078
55 155.664093 0.002503 -0.000030 0.003487 0.001180 -90.988930 155.664078
[R_front_hand01_01]
54 87.624611 14.231146 22.918642 -154.633499 -59.950619 61.746044 91.683487
55 87.624611 14.231146 22.918642 -154.633499 -59.950619 61.746044 91.683487
[R_front_hand02_01]
54 89.356956 14.367283 -19.491137 154.602661 58.302849 63.744389 92.579636
55 89.356956 14.367283 -19.491137 154.602661 58.302849 63.744389 92.579636
[R_front_hand03_01]
54 87.286232 -22.307278 -0.143439 0.162155 -0.423168 -75.767906 90.091743
55 87.286232 -22.307278 -0.143439 0.162155 -0.423168 -75.767921 90.091743
[R_front_hand01_02]
54 71.020905 0.000060 0.000119 0.002323 -0.000334 106.381714 71.020905
55 71.020905 0.000060 0.000119 0.002323 -0.000334 106.381714 71.020905
[R_front_hand02_02]
54 71.020844 -0.000030 -0.000119 0.002323 -0.000334 106.381714 71.020836
55 71.020844 -0.000030 -0.000119 0.002323 -0.000334 106.381714 71.020836
[R_front_hand03_02]
54 71.020905 0.000000 0.000030 0.002323 -0.000334 106.381714 71.020905
55 71.020905 0.000000 0.000030 0.002323 -0.000334 106.381714 71.020905
[null_rope01_connect]
54 328.732483 0.000000 -0.000238 -112.494080 -62.645348 -122.188995 328.732483
55 328.732483 0.000000 -0.000238 -94.824883 -69.373550 -144.847473 328.732483
[Rope1_Seg01]
54 0.000038 -0.000934 0.000000 85.397316 0.555817 -99.495201 0.000934
55 0.000038 -0.000950 0.000000 96.400436 -7.072658 -97.947403 0.000951
[Rope1_Seg02]
54 139.999863 -0.000179 0.000000 -18.025463 -5.971826 -17.837250 139.999863
55 139.999863 -0.000179 0.000000 -25.146702 -9.045304 -21.681643 139.999863
[Rope1_Seg03]
54 139.999924 0.000060 -0.000060 -11.301099 -0.857812 -25.308805 139.999924
55 139.999924 0.000060 -0.000060 -12.753943 -0.069799 -30.822393 139.999924
[Rope1_Seg04]
54 139.999924 -0.000060 -0.000119 -4.477529 1.986523 -24.805479 139.999924
55 139.999924 -0.000060 -0.000119 -3.078217 3.864653 -20.294531 139.999924
[Rope1_Seg05]
54 139.999832 0.000119 -0.000060 0.040767 4.608640 -1.857690 139.999832
55 139.999832 0.000119 -0.000060 0.472523 5.563037 2.758341 139.999832
[Rope1_Seg06]
54 139.999954 0.000119 -0.000060 1.554059 7.254548 12.639315 139.999954
55 139.999954 0.000119 -0.000060 2.219559 7.897030 13.762863 139.999954
[Rope1_Seg07]
54 139.999985 0.000060 0.000000 1.435882 5.980693 7.679812 139.999985
55 139.999985 0.000060 0.000000 1.388819 5.731013 6.011551 139.999985
[Rope1_Seg09]
54 121.602913 0.000119 -0.000089 -89.793175 -1.359789 0.847147 121.602913
55 121.602913 0.000119 -0.000089 -89.793175 -1.359789 0.847147 121.602913
[L_mid_hand01]
54 103.859421 1.038730 8.195221 130.544373 -67.584534 -38.866943 104.187431
55 103.859421 1.038730 8.195221 130.544373 -67.584534 -38.866943 104.187431
[L_mid_hand02]
54 105.572853 -4.139662 -10.864139 -168.923172 43.409309 -73.498886 106.211075
55 105.572853 -4.139662 -10.864139 -168.923172 43.409309 -73.498886 106.211075
[L_mid_hand03]
54 104.641464 17.579376 -3.913581 -6.012627 17.808174 74.893669 106.179977
55 104.641464 17.579376 -3.913581 -6.012627 17.808174 74.893669 106.179977
[null_rope02_connect]
54 328.732849 0.000179 -0.000119 99.236717 74.637604 -163.397095 328.732849
55 328.732849 0.000179 -0.000119 -175.915192 74.056160 -72.106339 328.732849
[Rope2_Seg01]
54 0.000066 -0.000896 0.000000 -49.016022 -15.193521 -125.955093 0.000899
55 0.000066 -0.000916 0.000000 -47.970177 -19.346498 -132.432800 0.000918
[Rope2_Seg02]
54 139.999741 -0.000060 -0.000119 1.181899 5.856401 4.084309 139.999756
55 139.999741 -0.000060 -0.000119 0.615960 3.523812 4.034307 139.999756
[Rope2_Seg03]
54 140.000107 0.000030 0.000000 1.298644 9.891543 6.705555 140.000107
55 140.000107 0.000030 0.000000 0.827357 5.817087 6.579128 140.000107
[Rope2_Seg04]
54 139.999802 0.000000 -0.000060 0.642817 20.174828 15.250267 139.999802
55 139.999802 0.000000 -0.000060 1.099627 11.088919 12.700598 139.999802
[Rope2_Seg05]
54 139.999985 -0.000060 0.000119 -5.286018 25.555111 22.500198 139.999985
55 139.999985 -0.000060 0.000119 2.232782 24.083708 34.864178 139.999985
[Rope2_Seg06]
54 139.999893 -0.000030 -0.000119 0.362752 4.703945 -3.260165 139.999893
55 139.999893 -0.000030 -0.000119 -2.595522 10.690774 10.767159 139.999893
[Rope2_Seg07]
54 139.999893 0.000060 -0.000060 10.976677 -2.525796 -17.239944 139.999893
55 139.999893 0.000060 -0.000060 5.984574 -0.535580 -17.767120 139.999893
[Rope2_Seg09]
54 121.338966 0.000089 -0.000060 33.793236 -1.359788 -0.847141 121.338966
55 121.338966 0.000089 -0.000060 33.793236 -1.359788 -0.847141 121.338966
[R_mid_hand01]
54 104.680779 11.144459 -10.335981 -16.212063 45.237247 70.462852 105.778534
55 104.680779 11.144459 -10.335981 -16.212063 45.237247 70.462852 105.778534
[R_mid_hand02]
54 104.070427 2.443552 8.231699 49.067368 -67.749771 39.286453 104.424065
55 104.070427 2.443552 8.231699 49.067368 -67.749771 39.286453 104.424065
[R_mid_hand03]
54 106.028137 -11.221827 -5.996406 -177.101105 15.551026 -76.585571 106.788818
55 106.028137 -11.221827 -5.996406 -177.101105 15.551026 -76.585571 106.788818
[spine02]
54 129.756927 0.001550 0.000119 0.416603 -4.038816 -13.739576 129.756927
55 129.756927 0.001550 0.000119 0.410725 -4.039455 -13.654181 129.756927
[spine03]
54 78.613472 0.081750 -4.898991 1.929444 3.813954 16.994553 78.766014
55 78.613457 0.081752 -4.898990 1.925555 3.815601 16.942583 78.765999
[pelvis]
54 169.435242 0.051022 0.000000 -34.345196 -0.969216 -13.251653 169.435257
55 169.435242 0.051022 0.000000 -30.901720 -0.948341 -13.469545 169.435257
[null_rope03_connect]
54 -1.257226 -2.466202 137.391083 -138.793365 -44.936680 -119.343826 137.418976
55 -1.257226 -2.466202 137.391083 -131.134293 -54.735630 -123.868156 137.418976
[null_rope04_connect]
54 -1.259640 -2.480268 -137.844437 -138.793365 -44.936680 -119.343826 137.872513
55 -1.259640 -2.480268 -137.844437 -131.134293 -54.735630 -123.868156 137.872513
[Rope3_Seg01]
54 0.000000 0.000000 0.000000 2.859220 18.694227 -114.657188 0.000000
55 0.000000 0.000000 0.000000 5.468665 19.184088 -109.441093 0.000000
[Rope3_Seg02]
54 139.999924 -0.000119 0.000060 11.907908 -22.248997 6.095594 139.999924
55 139.999924 -0.000119 0.000060 9.834503 -22.002737 4.322554 139.999924
[Rope3_Seg03]
54 139.999924 -0.000119 0.000119 15.118444 -29.486061 20.228128 139.999924
55 139.999924 -0.000119 0.000119 15.800692 -32.289165 16.815050 139.999924
[Rope3_Seg04]
54 139.999924 0.000119 0.000000 6.811014 -14.163719 15.606004 139.999924
55 139.999924 0.000119 0.000000 8.404609 -16.740768 15.548266 139.999924
[Rope3_Seg05]
54 139.999924 -0.000238 0.000060 0.719236 -4.505963 -5.389019 139.999924
55 139.999924 -0.000238 0.000060 0.531476 -4.004467 -5.373439 139.999924
[Rope3_Seg06]
54 139.999893 -0.000119 -0.000060 0.540154 -2.480333 -3.611992 139.999893
55 139.999893 -0.000119 -0.000060 0.112953 -2.077815 -4.225681 139.999893
[Rope3_Seg07]
54 139.999771 0.000060 -0.000119 1.205652 -1.805684 -0.754395 139.999771
55 139.999771 0.000060 -0.000119 1.173862 -1.754326 -0.961124 139.999771
[Rope3_Seg08]
54 139.999985 -0.000060 0.000000 0.990208 -1.122236 -0.438356 139.999985
55 139.999985 -0.000060 0.000000 0.976548 -1.096429 -0.571552 139.999985
[Rope3_Seg09]
54 90.185997 -0.000179 -0.000060 89.793228 -1.359877 -0.847183 90.185997
55 90.185997 -0.000179 -0.000060 89.793228 -1.359877 -0.847183 90.185997
[R_rear_hand01]
54 103.366196 -6.073594 -10.757982 -177.714203 24.565960 -73.910950 104.101845
55 103.366196 -6.073594 -10.757982 -177.714203 24.565960 -73.910950 104.101845
[R_rear_hand02]
54 100.509819 12.039542 -7.992327 -12.874829 36.868488 72.167213 101.543350
55 100.509819 12.039542 -7.992327 -12.874829 36.868488 72.167213 101.543350
[R_rear_hand03]
54 101.539970 5.215704 5.435467 71.484581 -71.816628 21.513813 101.819031
55 101.539970 5.215704 5.435467 71.484581 -71.816628 21.513813 101.819031
[Rope4_Seg01]
54 -0.000005 -0.000934 -0.000153 -99.439056 21.163139 -101.550240 0.000946
55 -0.000005 -0.000950 -0.000153 -98.010002 21.610666 -97.392570 0.000963
[Rope4_Seg02]
54 139.999985 0.000060 0.000119 0.489244 6.419921 -17.079363 139.999985
55 139.999985 0.000060 0.000119 -0.614393 7.325818 -16.933895 139.999985
[Rope4_Seg03]
54 139.999924 0.000000 -0.000238 -2.344807 10.683206 -34.584339 139.999924
55 139.999924 0.000000 -0.000238 -4.139451 13.379988 -35.763783 139.999924
[Rope4_Seg04]
54 139.999985 0.000000 0.000119 -4.308544 9.176208 -32.248245 139.999985
55 139.999985 0.000000 0.000119 -4.574245 11.867509 -33.197819 139.999985
[Rope4_Seg05]
54 139.999802 -0.000060 -0.000119 0.218260 2.341737 2.608297 139.999802
55 139.999802 -0.000060 -0.000119 0.142375 2.690306 1.988875 139.999802
[Rope4_Seg06]
54 139.999924 0.000000 0.000060 0.116706 0.409500 8.586050 139.999924
55 139.999924 0.000000 0.000060 -0.320730 0.114898 10.277511 139.999924
[Rope4_Seg07]
54 139.999802 0.000000 0.000000 0.090050 0.920289 1.768157 139.999802
55 139.999802 0.000000 0.000000 -0.049305 0.982352 2.711869 139.999802
[Rope4_Seg08]
54 139.999924 0.000000 0.000119 -1.501386 0.584676 1.082190 139.999924
55 139.999924 0.000000 0.000119 -1.592008 0.656583 1.565513 139.999924
[Rope4_Seg09]
54 90.185791 0.000060 0.000060 -135.617828 2.228885 0.850567 90.185791
55 90.185791 0.000060 0.000060 -135.617828 2.228885 0.850567 90.185791
[L_rear_hand01]
54 101.696655 -8.392275 -7.654577 -12.874829 -36.868488 107.832764 102.329041
55 101.696655 -8.392275 -7.654577 -12.874829 -36.868488 107.832764 102.329041
[L_rear_hand02]
54 102.726799 -1.568258 5.773216 71.484581 71.816628 158.486160 102.900848
55 102.726799 -1.568258 5.773216 71.484581 71.816628 158.486160 102.900848
[L_rear_hand03]
54 104.552910 9.721220 -10.420293 -177.714203 -24.565960 -106.089035 105.519653
55 104.552910 9.721220 -10.420293 -177.714203 -24.565960 -106.089035 105.519653
